<?xml version="1.0" standalone="no"?>
<!DOCTYPE svg PUBLIC "-//W3C//DTD SVG 1.1//EN"
"http://www.w3.org/Graphics/SVG/1.1/DTD/svg11.dtd">
<!-- Creator: fig2dev Version 3.2 Patchlevel 5-alpha5 -->
<!-- CreationDate: Fri Aug 31 18:55:28 2007 -->
<!-- Magnification: 1.050 -->
<svg xmlns="http://www.w3.org/2000/svg" width="9.9in" height="2.7in" viewBox="-1051 932 11930 3285">
<rect  rx="0"
style="stroke:#ffffff;stroke-width:8;
stroke-linejoin:miter; stroke-linecap:butt; fill:#ffffff;"
/>
<g style="stroke-width:.025in; stroke:black; fill:none">
<!-- Line: box -->
<rect x="-1039" y="944" width="11905" height="3259" rx="0" 
style="stroke:#ffffff;stroke-width:16;
stroke-linejoin:miter; stroke-linecap:butt;
fill:#ffffff;
"/>
<!-- Line -->
<polyline points="472,2976
472,3212
" style="stroke:#000000;stroke-width:32;
stroke-linejoin:miter; stroke-linecap:butt;
"/>
<!-- Line -->
<polyline points="850,2692
850,3212
" style="stroke:#000000;stroke-width:32;
stroke-linejoin:miter; stroke-linecap:butt;
"/>
<!-- Line -->
<polyline points="1228,2362
1228,3212
" style="stroke:#000000;stroke-width:32;
stroke-linejoin:miter; stroke-linecap:butt;
"/>
<!-- Line -->
<polyline points="1606,1937
1606,3212
" style="stroke:#000000;stroke-width:32;
stroke-linejoin:miter; stroke-linecap:butt;
"/>
<!-- Line -->
<polyline points="2456,1700
2456,3212
" style="stroke:#000000;stroke-width:32;
stroke-linejoin:miter; stroke-linecap:butt;
"/>
<!-- Line -->
<polyline points="2834,2031
2834,3212
" style="stroke:#000000;stroke-width:32;
stroke-linejoin:miter; stroke-linecap:butt;
"/>
<!-- Line -->
<polyline points="3212,2314
3212,3212
" style="stroke:#000000;stroke-width:32;
stroke-linejoin:miter; stroke-linecap:butt;
"/>
<!-- Line -->
<polyline points="3590,2503
3590,3212
" style="stroke:#000000;stroke-width:32;
stroke-linejoin:miter; stroke-linecap:butt;
"/>
<!-- Line -->
<polyline points="3968,2692
3968,3212
" style="stroke:#000000;stroke-width:32;
stroke-linejoin:miter; stroke-linecap:butt;
"/>
<!-- Line -->
<polyline points="4346,2787
4346,3212
" style="stroke:#000000;stroke-width:32;
stroke-linejoin:miter; stroke-linecap:butt;
"/>
<!-- Line -->
<polyline points="4724,2834
4724,3212
" style="stroke:#000000;stroke-width:32;
stroke-linejoin:miter; stroke-linecap:butt;
"/>
<!-- Line -->
<polyline points="5102,2834
5102,3212
" style="stroke:#000000;stroke-width:32;
stroke-linejoin:miter; stroke-linecap:butt;
"/>
<!-- Line -->
<polyline points="5480,2787
5480,3212
" style="stroke:#000000;stroke-width:32;
stroke-linejoin:miter; stroke-linecap:butt;
"/>
<!-- Line -->
<polyline points="5858,2692
5858,3212
" style="stroke:#000000;stroke-width:32;
stroke-linejoin:miter; stroke-linecap:butt;
"/>
<!-- Line -->
<polyline points="6236,2503
6236,3212
" style="stroke:#000000;stroke-width:32;
stroke-linejoin:miter; stroke-linecap:butt;
"/>
<!-- Line -->
<polyline points="6614,2314
6614,3212
" style="stroke:#000000;stroke-width:32;
stroke-linejoin:miter; stroke-linecap:butt;
"/>
<!-- Line -->
<polyline points="6992,2031
6992,3212
" style="stroke:#000000;stroke-width:32;
stroke-linejoin:miter; stroke-linecap:butt;
"/>
<!-- Line -->
<polyline points="7370,1700
7370,3212
" style="stroke:#000000;stroke-width:32;
stroke-linejoin:miter; stroke-linecap:butt;
"/>
<!-- Line -->
<polyline points="8220,1937
8220,3212
" style="stroke:#000000;stroke-width:32;
stroke-linejoin:miter; stroke-linecap:butt;
"/>
<!-- Line -->
<polyline points="8598,2362
8598,3212
" style="stroke:#000000;stroke-width:32;
stroke-linejoin:miter; stroke-linecap:butt;
"/>
<!-- Line -->
<polyline points="8976,2692
8976,3212
" style="stroke:#000000;stroke-width:32;
stroke-linejoin:miter; stroke-linecap:butt;
"/>
<!-- Line -->
<polyline points="9354,2976
9354,3212
" style="stroke:#000000;stroke-width:32;
stroke-linejoin:miter; stroke-linecap:butt;
"/>
<!-- Line: box -->
<rect x="2078" y="3212" width="5669" height="94" rx="0" 
style="stroke:#00d1d1;stroke-width:16;
stroke-linejoin:miter; stroke-linecap:butt;
fill:#00d1d1;
"/>
<!-- Line: box -->
<rect x="-850" y="3212" width="2834" height="94" rx="0" 
style="stroke:#00d1d1;stroke-width:16;
stroke-linejoin:miter; stroke-linecap:butt;
fill:#00d1d1;
"/>
<!-- Line: box -->
<rect x="7842" y="3212" width="2834" height="94" rx="0" 
style="stroke:#00d1d1;stroke-width:16;
stroke-linejoin:miter; stroke-linecap:butt;
fill:#00d1d1;
"/>
<!-- Line -->
<polyline points="2078,1322
2079,1323
2080,1324
2082,1327
2087,1331
2092,1337
2099,1344
2110,1355
2121,1367
2136,1382
2154,1400
2175,1421
2198,1444
2223,1470
2253,1499
2284,1530
2319,1564
2355,1598
2395,1636
2437,1676
2481,1717
2528,1759
2576,1803
2626,1847
2679,1892
2732,1938
2787,1984
2844,2030
2901,2075
2960,2121
3021,2166
3083,2212
3146,2256
3210,2299
3276,2341
3343,2383
3412,2423
3482,2462
3554,2500
3629,2537
3706,2572
3783,2605
3864,2638
3947,2668
4033,2697
4121,2723
4212,2747
4306,2769
4402,2788
4500,2804
4601,2816
4704,2826
4808,2832
4913,2834
5018,2832
5122,2826
5225,2816
5325,2804
5424,2788
5520,2769
5614,2747
5704,2723
5793,2697
5879,2668
5962,2638
6043,2605
6120,2572
6197,2537
6271,2500
6344,2462
6414,2423
6482,2383
6550,2341
6616,2299
6680,2256
6743,2212
6805,2166
6866,2121
6924,2075
6982,2030
7039,1984
7093,1938
7147,1892
7199,1847
7250,1803
7298,1759
7344,1717
7388,1676
7430,1636
7470,1598
7507,1564
7542,1530
7573,1499
7603,1470
7628,1444
7651,1421
7672,1400
7690,1382
7704,1367
7716,1355
7727,1344
7734,1337
7739,1331
7743,1327
7745,1324
7746,1323
7748,1322
" style="stroke:#ff0000;stroke-width:48;
stroke-linejoin:bevel; stroke-linecap:butt;
"/>
<!-- Line -->
<polyline points="1984,1322
1984,1323
1983,1324
1981,1328
1977,1333
1973,1340
1968,1351
1961,1362
1952,1378
1941,1396
1929,1417
1914,1440
1899,1466
1882,1496
1863,1526
1842,1559
1821,1593
1798,1630
1773,1668
1748,1707
1721,1745
1693,1786
1664,1827
1634,1869
1603,1912
1570,1955
1535,1999
1500,2045
1462,2090
1423,2136
1381,2183
1338,2232
1292,2280
1244,2330
1192,2382
1138,2433
1081,2487
1022,2539
960,2593
897,2645
830,2699
762,2750
696,2799
630,2846
566,2889
504,2930
444,2966
386,3002
329,3035
275,3064
221,3092
169,3120
117,3144
68,3167
18,3189
-28,3210
-75,3230
-120,3248
-165,3266
-208,3281
-249,3297
-289,3311
-327,3324
-363,3337
-396,3348
-427,3358
-455,3366
-479,3375
-500,3381
-518,3386
-533,3392
-544,3395
-554,3397
-560,3399
-563,3400
-565,3401
-566,3401
" style="stroke:#ff0000;stroke-width:48;
stroke-linejoin:bevel; stroke-linecap:butt;
"/>
<!-- Line -->
<polyline points="7842,1322
7842,1323
7843,1324
7845,1328
7848,1333
7853,1340
7858,1351
7865,1362
7874,1378
7885,1396
7897,1417
7911,1440
7927,1466
7944,1496
7963,1526
7984,1559
8005,1593
8028,1630
8053,1668
8078,1707
8104,1745
8133,1786
8162,1827
8192,1869
8223,1912
8256,1955
8290,1999
8326,2045
8364,2090
8403,2136
8445,2183
8488,2232
8534,2280
8582,2330
8634,2382
8688,2433
8745,2487
8804,2539
8866,2593
8929,2645
8996,2699
9064,2750
9130,2799
9195,2846
9259,2889
9321,2930
9382,2966
9440,3002
9497,3035
9551,3064
9605,3092
9657,3120
9709,3144
9758,3167
9807,3189
9855,3210
9902,3230
9947,3248
9992,3266
10035,3281
10076,3297
10116,3311
10154,3324
10190,3337
10223,3348
10254,3358
10282,3366
10306,3375
10327,3381
10345,3386
10360,3392
10371,3395
10381,3397
10387,3399
10390,3400
10392,3401
10393,3401
" style="stroke:#ff0000;stroke-width:48;
stroke-linejoin:bevel; stroke-linecap:butt;
"/>
<!-- Line: box -->
<rect x="1984" y="1228" width="94" height="2740" rx="0" 
style="stroke:#0000ff;stroke-width:16;
stroke-linejoin:miter; stroke-linecap:butt;
fill:#0000ff;
"/>
<!-- Line: box -->
<rect x="7748" y="1228" width="94" height="2740" rx="0" 
style="stroke:#0000ff;stroke-width:16;
stroke-linejoin:miter; stroke-linecap:butt;
fill:#0000ff;
"/>
</g>
</svg>
